<svg width="140" height="60" viewBox="0 0 140 60" fill="none" xmlns="http://www.w3.org/2000/svg">
<mask id="mask0" mask-type="alpha" maskUnits="userSpaceOnUse" x="0" y="0" width="140" height="60">
<rect width="140" height="60" fill="white"/>
</mask>
<g mask="url(#mask0)">
<path d="M113.973 22.9838C111.209 21.5989 106.938 21.6986 103.814 23.2214C100.855 24.6637 98.8179 27.0712 97.6806 30.4681C97.0888 32.2375 96.9016 33.6607 96.9619 35.9554C96.9992 37.4058 97.0626 38.1546 97.2156 38.8249C98.3821 44.0325 101.953 47.5733 106.946 48.4741C108.045 48.6754 110.541 48.6754 111.653 48.4822C113.239 48.2044 115.069 47.4988 116.222 46.7198C117.631 45.7687 119.074 44.3385 119.074 43.8946C119.074 43.6239 118.59 43.0008 118.38 43.0008C118.288 43.0008 117.897 43.2021 117.511 43.4548C116.134 44.3455 114.817 44.7109 112.982 44.7109C110.456 44.7109 108.856 44.0818 107.245 42.4563C106.533 41.7367 106.239 41.3492 105.871 40.6356C105.061 39.0682 104.623 37.2652 104.557 35.2267L104.529 34.3471L111.977 34.3209L119.425 34.2947L119.458 33.7915C119.464 33.2536 119.437 32.7158 119.377 32.1811C118.915 27.657 117.085 24.5429 113.973 22.9838ZM110.11 32.0674C109.146 32.1006 107.509 32.1419 106.471 32.159L104.584 32.1892V31.7866C104.608 31.3482 104.655 30.9114 104.726 30.4781C105.355 26.425 106.867 23.9923 108.759 23.9903C110.5 23.9903 111.577 26.3858 111.796 30.772L111.859 32.0161L110.108 32.0774L110.11 32.0674Z" fill="#190E11"/>
<path d="M139.338 36.7513C138.492 35.0584 136.933 33.9009 133.669 32.5361C131.004 31.4219 129.667 30.651 128.849 29.7572C128.187 29.0325 127.993 28.4488 128.057 27.3618C128.117 26.3613 128.359 25.7645 128.989 25.0942C129.794 24.2336 130.902 23.9327 132.226 24.2125C134.401 24.6725 135.796 26.1782 136.998 29.3617C137.427 30.497 137.477 30.5332 138.248 30.2474L138.735 30.0662L138.718 28.7578C138.709 28.0381 138.672 26.5274 138.636 25.4001L138.572 23.3509L138.209 23.1969C136.22 22.3545 132.423 21.8301 129.956 22.0556C127.147 22.3122 125.086 23.203 123.498 24.8486C121.91 26.4942 121.208 28.4015 121.334 30.6761C121.435 32.5593 121.995 33.911 123.156 35.0986C124.232 36.1997 125.134 36.7201 127.724 37.7316C131.904 39.3641 133.01 40.3314 133.001 42.3443C132.993 44.0443 132.095 45.2883 130.449 45.867C129.862 46.0744 128.376 46.0683 127.584 45.867C125.507 45.3195 123.917 43.5199 122.561 40.1824L122.214 39.3269L121.806 39.346C121.57 39.3586 121.338 39.41 121.12 39.498L120.842 39.6308L120.868 41.0892C120.882 41.8944 120.922 43.5823 120.958 44.8465L121.021 47.1463L121.485 47.3476C122.435 47.7562 125.288 48.3812 127.082 48.5735C127.303 48.5976 128.526 48.6057 129.8 48.5916C132.014 48.5674 132.168 48.5523 133.279 48.2625C136.559 47.406 138.683 45.5782 139.62 42.8023C139.909 41.9508 139.949 41.6952 139.99 40.4219C140.044 38.728 139.888 37.8504 139.338 36.7513Z" fill="#190E11"/>
<path d="M13.3078 15.42H16.4752C20.1146 15.42 20.7105 15.4964 21.9998 16.1245C23.8688 17.0414 25.2336 18.8571 26.4283 22.0084C26.9134 23.2917 26.9064 23.2877 27.9843 22.9595L28.7 22.7421L28.6345 18.0972C28.5983 15.5427 28.5399 13.2711 28.5037 13.0497L28.4383 12.6471L14.5488 12.6189C6.91154 12.6028 0.513308 12.6189 0.331134 12.6491L0 12.7155L0.0291881 13.5408L0.0583762 14.3662L1.11519 14.493C2.48703 14.657 3.30631 15.0425 3.79244 15.7511C4.8885 17.3484 5.08678 19.5234 5.08477 29.865C5.08477 40.877 4.85328 43.5533 3.79445 44.9402C3.24793 45.6568 2.80508 45.8913 1.56811 46.1208C-0.0422724 46.4228 0.00805189 46.3825 0.00805189 47.2169C0.00805189 47.6809 0.0503243 47.9325 0.133863 47.9657C0.31503 48.0392 18.0775 48.0442 18.2677 47.9717C18.5113 47.8781 18.4962 46.5627 18.2506 46.4389C18.15 46.3885 17.5541 46.2698 16.917 46.1741C16.2799 46.0785 15.5784 45.9215 15.356 45.8249C14.1935 45.3217 13.5443 43.9176 13.3027 41.3843C13.1286 39.5666 12.9917 36.218 12.9917 33.742V31.4704L14.0737 31.5036C16.3775 31.5741 17.5692 31.6948 18.0503 31.9062C19.093 32.3672 19.9365 33.6535 20.3743 35.45L20.6078 36.4062L21.4301 36.4354L22.2524 36.4646V24.3716L21.4311 24.4008L20.6098 24.43L20.3683 25.3842C19.9033 27.2351 19.1444 28.3714 18.0282 28.8888C17.5743 29.0991 17.2512 29.1565 16.1662 29.2219C15.4445 29.2652 14.434 29.3024 13.9227 29.3054L12.9917 29.3105V26.3172C12.9917 23.3158 13.1528 16.9418 13.2544 15.9504L13.3078 15.42Z" fill="#190E11"/>
<path d="M49.6383 33.1887C49.1119 28.7219 47.2227 25.4529 44.0925 23.613C40.6191 21.5688 35.3361 21.4501 31.591 23.3332C28.8865 24.692 26.6723 27.3108 25.6869 30.3162C24.6734 33.4202 24.6734 37.4935 25.6869 40.6619C26.3371 42.691 27.2188 44.1725 28.5775 45.5192C30.208 47.1296 32.3418 48.1673 34.7825 48.5225C35.6561 48.6494 38.4129 48.6524 39.3117 48.5225C39.8691 48.4376 40.421 48.3197 40.9644 48.1693C45.3929 46.888 48.4124 43.4881 49.445 38.6217C49.6946 37.4331 49.7993 34.5525 49.6383 33.1887ZM32.9547 30.6383C33.4932 26.2238 34.856 23.9814 37.0038 23.9784C37.9711 23.9784 38.5085 24.2139 39.2654 24.9758C41.068 26.7875 41.9215 30.2568 41.9084 35.7029C41.8974 40.0489 41.4656 42.7856 40.4994 44.6365C40.0303 45.5333 39.1517 46.3576 38.4381 46.569C35.6853 47.3862 33.7177 44.7663 32.9527 39.2739C32.7061 37.5015 32.7112 32.6674 32.9547 30.6383Z" fill="#190E11"/>
<path d="M86.989 22.5017C86.3962 22.3789 85.8607 22.3537 84.7043 22.394C82.9681 22.4544 81.7734 22.7141 80.4771 23.3139C80.0473 23.5152 79.6719 23.6753 79.6427 23.6753C79.6135 23.6753 79.6185 21.0483 79.6527 17.8376C79.7011 13.3135 79.688 12 79.5934 12C79.2662 11.995 68.987 13.9556 68.8743 14.0452C68.7897 14.1116 68.7545 14.329 68.7736 14.6591C68.8068 15.2308 68.7394 15.1855 69.9925 15.4643C70.3699 15.5489 70.8108 15.7129 70.9738 15.8287C71.3925 16.1306 71.7397 16.7708 71.9803 17.6957C72.1705 18.4254 72.1957 18.9468 72.2822 23.8765C72.3718 28.909 72.3547 34.0853 72.2158 43.5654L72.1584 47.5028L72.8962 47.6709C73.9621 47.9135 77.0137 48.4207 78.0122 48.5224C79.4766 48.6713 82.8906 48.6502 83.9776 48.4861C88.698 47.7746 92.256 45.0369 93.9136 40.8369C94.404 39.5138 94.7416 38.1391 94.9201 36.7394C95.0942 35.2468 94.9966 32.2676 94.7349 31.0689C93.7355 26.4773 90.866 23.3039 86.989 22.5017ZM82.0452 46.5205C81.5147 46.6211 81.3567 46.6211 80.3975 46.5487C79.9949 46.5165 79.8993 46.4712 79.8178 46.2548C79.689 45.9166 79.536 34.1196 79.5984 29.4072L79.6477 25.7285L80.314 25.5272C80.8278 25.3854 81.3592 25.3176 81.8922 25.3259C82.7437 25.3259 82.8544 25.3511 83.572 25.7053C85.3021 26.5608 86.4908 28.6845 87.0403 31.9164C87.2416 33.1111 87.2688 36.3741 87.0846 37.8053C86.6327 41.321 85.4833 44.1572 83.9545 45.5321C83.3445 46.0806 82.7769 46.3715 82.0421 46.5104L82.0452 46.5205Z" fill="#190E11"/>
<path d="M67.789 21.9624C66.6195 21.9624 65.9884 22.0922 65.0413 22.526C63.3172 23.3161 62.0219 24.6105 60.8634 26.6959L60.5021 27.3471L60.5484 26.1896C60.5735 25.5525 60.6168 24.3639 60.644 23.5476L60.6913 22.0631H60.4427C60.1246 22.0631 50.1534 24.0559 49.8524 24.1767C49.6562 24.2572 49.626 24.3437 49.626 24.8238C49.626 25.3039 49.6511 25.3824 49.8524 25.4277C49.9772 25.4539 50.4352 25.5435 50.87 25.629C51.7517 25.7981 52.0134 25.931 52.3797 26.4161C53.05 27.3038 53.1849 28.8699 53.1849 35.5017C53.1789 40.9236 53.0661 43.624 52.8095 44.4684C52.4945 45.5041 51.9338 46.0335 50.9596 46.2157C50.6445 46.2741 50.2289 46.3566 50.0346 46.3979L49.6823 46.4734L49.6521 47.1688C49.631 47.657 49.6612 47.8895 49.7528 47.9479C49.8243 47.9942 53.2352 48.0203 57.3316 48.0072L64.7796 47.9831L64.8088 47.2031C64.8249 46.7743 64.8028 46.423 64.7585 46.423C64.1798 46.423 62.4073 46.1795 62.1265 46.0627C61.2861 45.7115 60.8795 44.9556 60.7044 43.4277C60.5031 41.6312 60.3763 37.1644 60.4336 33.5018C60.491 29.8039 60.492 29.7888 60.7225 29.5412C61.262 28.9625 62.6298 28.5116 63.8537 28.5086C64.836 28.5086 65.8485 28.7592 66.9275 29.2775C67.4448 29.5261 67.9219 29.7083 67.9873 29.6801C68.1222 29.6288 70.5659 23.1712 70.5659 22.8672C70.5629 22.4173 69.176 21.9624 67.789 21.9624Z" fill="#190E11"/>
</g>
</svg>
